<svg width="1132" height="594" xmlns="http://www.w3.org/2000/svg" xmlns:xlink="http://www.w3.org/1999/xlink" overflow="hidden"><defs><clipPath id="clip0"><path d="M74 44 1206 44 1206 638 74 638Z" fill-rule="evenodd" clip-rule="evenodd"/></clipPath></defs><g clip-path="url(#clip0)" transform="translate(-74 -44)"><path d="M135 267.5C135 217.518 175.518 177 225.5 177 275.482 177 316 217.518 316 267.5 316 317.482 275.482 358 225.5 358 175.518 358 135 317.482 135 267.5Z" fill="#000000" fill-rule="evenodd" fill-opacity="0.501961"/><path d="M158 267.5C158 230.221 187.997 200 225 200 262.003 200 292 230.221 292 267.5 292 304.779 262.003 335 225 335 187.997 335 158 304.779 158 267.5Z" fill="#000000" fill-rule="evenodd" fill-opacity="0.501961"/><path d="M180 267C180 242.147 200.147 222 225 222 249.853 222 270 242.147 270 267 270 291.853 249.853 312 225 312 200.147 312 180 291.853 180 267Z" fill-rule="evenodd"/><path d="M75 215.5C75 184.296 100.296 159 131.5 159 162.704 159 188 184.296 188 215.5 188 246.704 162.704 272 131.5 272 100.296 272 75 246.704 75 215.5Z" fill="#000000" fill-rule="evenodd" fill-opacity="0.501961"/><path d="M89 215.5C89 192.028 108.028 173 131.5 173 154.972 173 174 192.028 174 215.5 174 238.972 154.972 258 131.5 258 108.028 258 89 238.972 89 215.5Z" fill="#000000" fill-rule="evenodd" fill-opacity="0.501961"/><path d="M103 215.5C103 199.76 115.76 187 131.5 187 147.24 187 160 199.76 160 215.5 160 231.24 147.24 244 131.5 244 115.76 244 103 231.24 103 215.5Z" fill-rule="evenodd"/><path d="M214 171.5C214 149.685 231.685 132 253.5 132 275.315 132 293 149.685 293 171.5 293 193.315 275.315 211 253.5 211 231.685 211 214 193.315 214 171.5Z" fill="#000000" fill-rule="evenodd" fill-opacity="0.501961"/><path d="M224 171.5C224 155.208 237.208 142 253.5 142 269.792 142 283 155.208 283 171.5 283 187.792 269.792 201 253.5 201 237.208 201 224 187.792 224 171.5Z" fill="#000000" fill-rule="evenodd" fill-opacity="0.501961"/><path d="M234 171.5C234 160.73 242.73 152 253.5 152 264.27 152 273 160.73 273 171.5 273 182.27 264.27 191 253.5 191 242.73 191 234 182.27 234 171.5Z" fill-rule="evenodd"/><path d="M332 96C332 68.938 353.714 47 380.5 47 407.286 47 429 68.938 429 96 429 123.062 407.286 145 380.5 145 353.714 145 332 123.062 332 96Z" fill="#000000" fill-rule="evenodd" fill-opacity="0.501961"/><path d="M344 96C344 76.1177 360.342 60 380.5 60 400.658 60 417 76.1177 417 96 417 115.882 400.658 132 380.5 132 360.342 132 344 115.882 344 96Z" fill="#000000" fill-rule="evenodd" fill-opacity="0.501961"/><path d="M356 96C356 82.7452 366.969 72 380.5 72 394.031 72 405 82.7452 405 96 405 109.255 394.031 120 380.5 120 366.969 120 356 109.255 356 96Z" fill-rule="evenodd"/><path d="M360 153.5C360 131.685 377.685 114 399.5 114 421.315 114 439 131.685 439 153.5 439 175.315 421.315 193 399.5 193 377.685 193 360 175.315 360 153.5Z" fill="#000000" fill-rule="evenodd" fill-opacity="0.501961"/><path d="M370 153.5C370 137.208 383.208 124 399.5 124 415.792 124 429 137.208 429 153.5 429 169.792 415.792 183 399.5 183 383.208 183 370 169.792 370 153.5Z" fill="#000000" fill-rule="evenodd" fill-opacity="0.501961"/><path d="M380 153.5C380 142.73 388.73 134 399.5 134 410.27 134 419 142.73 419 153.5 419 164.27 410.27 173 399.5 173 388.73 173 380 164.27 380 153.5Z" fill-rule="evenodd"/><path d="M691 355.5C691 338.655 704.655 325 721.5 325 738.345 325 752 338.655 752 355.5 752 372.345 738.345 386 721.5 386 704.655 386 691 372.345 691 355.5Z" fill="#000000" fill-rule="evenodd" fill-opacity="0.501961"/><path d="M699 355.5C699 343.074 709.074 333 721.5 333 733.926 333 744 343.074 744 355.5 744 367.926 733.926 378 721.5 378 709.074 378 699 367.926 699 355.5Z" fill="#000000" fill-rule="evenodd" fill-opacity="0.501961"/><path d="M706 355.5C706 346.94 712.94 340 721.5 340 730.06 340 737 346.94 737 355.5 737 364.06 730.06 371 721.5 371 712.94 371 706 364.06 706 355.5Z" fill-rule="evenodd"/><path d="M230 402C230 387.088 241.864 375 256.5 375 271.136 375 283 387.088 283 402 283 416.912 271.136 429 256.5 429 241.864 429 230 416.912 230 402Z" fill="#000000" fill-rule="evenodd" fill-opacity="0.501961"/><path d="M237 402C237 390.954 245.954 382 257 382 268.046 382 277 390.954 277 402 277 413.046 268.046 422 257 422 245.954 422 237 413.046 237 402Z" fill="#000000" fill-rule="evenodd" fill-opacity="0.501961"/><path d="M244 402C244 394.82 249.82 389 257 389 264.18 389 270 394.82 270 402 270 409.18 264.18 415 257 415 249.82 415 244 409.18 244 402Z" fill-rule="evenodd"/><path d="M245 436C245 388.504 283.504 350 331 350 378.496 350 417 388.504 417 436 417 483.496 378.496 522 331 522 283.504 522 245 483.496 245 436Z" fill="#000000" fill-rule="evenodd" fill-opacity="0.501961"/><path d="M267 436C267 400.654 295.654 372 331 372 366.346 372 395 400.654 395 436 395 471.346 366.346 500 331 500 295.654 500 267 471.346 267 436Z" fill="#000000" fill-rule="evenodd" fill-opacity="0.501961"/><path d="M288 436C288 412.252 307.252 393 331 393 354.748 393 374 412.252 374 436 374 459.748 354.748 479 331 479 307.252 479 288 459.748 288 436Z" fill-rule="evenodd"/><path d="M260 528C260 502.595 280.595 482 306 482 331.405 482 352 502.595 352 528 352 553.405 331.405 574 306 574 280.595 574 260 553.405 260 528Z" fill="#000000" fill-rule="evenodd" fill-opacity="0.501961"/><path d="M271 528.5C271 509.446 286.446 494 305.5 494 324.554 494 340 509.446 340 528.5 340 547.554 324.554 563 305.5 563 286.446 563 271 547.554 271 528.5Z" fill="#000000" fill-rule="evenodd" fill-opacity="0.501961"/><path d="M283 528C283 515.297 293.297 505 306 505 318.703 505 329 515.297 329 528 329 540.703 318.703 551 306 551 293.297 551 283 540.703 283 528Z" fill-rule="evenodd"/><path d="M273 583.5C273 568.864 284.864 557 299.5 557 314.136 557 326 568.864 326 583.5 326 598.136 314.136 610 299.5 610 284.864 610 273 598.136 273 583.5Z" fill="#000000" fill-rule="evenodd" fill-opacity="0.501961"/><path d="M280 583.5C280 572.73 288.73 564 299.5 564 310.27 564 319 572.73 319 583.5 319 594.27 310.27 603 299.5 603 288.73 603 280 594.27 280 583.5Z" fill="#000000" fill-rule="evenodd" fill-opacity="0.501961"/><path d="M286 583.5C286 576.044 292.044 570 299.5 570 306.956 570 313 576.044 313 583.5 313 590.956 306.956 597 299.5 597 292.044 597 286 590.956 286 583.5Z" fill-rule="evenodd"/><path d="M294 618C294 606.954 302.73 598 313.5 598 324.27 598 333 606.954 333 618 333 629.046 324.27 638 313.5 638 302.73 638 294 629.046 294 618Z" fill="#000000" fill-rule="evenodd" fill-opacity="0.501961"/><path d="M299 618C299 609.716 305.492 603 313.5 603 321.508 603 328 609.716 328 618 328 626.284 321.508 633 313.5 633 305.492 633 299 626.284 299 618Z" fill="#000000" fill-rule="evenodd" fill-opacity="0.501961"/><path d="M304 618C304 612.477 308.253 608 313.5 608 318.747 608 323 612.477 323 618 323 623.523 318.747 628 313.5 628 308.253 628 304 623.523 304 618Z" fill-rule="evenodd"/><path d="M360 187C360 175.954 368.954 167 380 167 391.046 167 400 175.954 400 187 400 198.046 391.046 207 380 207 368.954 207 360 198.046 360 187Z" fill="#000000" fill-rule="evenodd" fill-opacity="0.501961"/><path d="M365 186.5C365 178.492 371.716 172 380 172 388.284 172 395 178.492 395 186.5 395 194.508 388.284 201 380 201 371.716 201 365 194.508 365 186.5Z" fill="#000000" fill-rule="evenodd" fill-opacity="0.501961"/><path d="M370 187C370 181.477 374.477 177 380 177 385.523 177 390 181.477 390 187 390 192.523 385.523 197 380 197 374.477 197 370 192.523 370 187Z" fill-rule="evenodd"/><path d="M266 241C266 219.461 283.685 202 305.5 202 327.315 202 345 219.461 345 241 345 262.539 327.315 280 305.5 280 283.685 280 266 262.539 266 241Z" fill="#000000" fill-rule="evenodd" fill-opacity="0.501961"/><path d="M276 241C276 224.984 289.208 212 305.5 212 321.792 212 335 224.984 335 241 335 257.016 321.792 270 305.5 270 289.208 270 276 257.016 276 241Z" fill="#000000" fill-rule="evenodd" fill-opacity="0.501961"/><path d="M286 241.5C286 230.73 294.73 222 305.5 222 316.27 222 325 230.73 325 241.5 325 252.27 316.27 261 305.5 261 294.73 261 286 252.27 286 241.5Z" fill-rule="evenodd"/><path d="M468 359.5C468 317.802 501.802 284 543.5 284 585.198 284 619 317.802 619 359.5 619 401.197 585.198 435 543.5 435 501.802 435 468 401.197 468 359.5Z" fill="#000000" fill-rule="evenodd" fill-opacity="0.501961"/><path d="M487 359.5C487 328.296 512.296 303 543.5 303 574.704 303 600 328.296 600 359.5 600 390.704 574.704 416 543.5 416 512.296 416 487 390.704 487 359.5Z" fill="#000000" fill-rule="evenodd" fill-opacity="0.501961"/><path d="M506 359.5C506 338.789 522.789 322 543.5 322 564.211 322 581 338.789 581 359.5 581 380.211 564.211 397 543.5 397 522.789 397 506 380.211 506 359.5Z" fill-rule="evenodd"/><path d="M568 347C568 305.026 602.026 271 644 271 685.974 271 720 305.026 720 347 720 388.974 685.974 423 644 423 602.026 423 568 388.974 568 347Z" fill="#000000" fill-rule="evenodd" fill-opacity="0.501961"/><path d="M588 347C588 316.072 613.072 291 644 291 674.928 291 700 316.072 700 347 700 377.928 674.928 403 644 403 613.072 403 588 377.928 588 347Z" fill="#000000" fill-rule="evenodd" fill-opacity="0.501961"/><path d="M606 347C606 326.013 623.013 309 644 309 664.987 309 682 326.013 682 347 682 367.987 664.987 385 644 385 623.013 385 606 367.987 606 347Z" fill-rule="evenodd"/><path d="M563 453.5C563 411.802 596.802 378 638.5 378 680.198 378 714 411.802 714 453.5 714 495.197 680.198 529 638.5 529 596.802 529 563 495.197 563 453.5Z" fill="#000000" fill-rule="evenodd" fill-opacity="0.501961"/><path d="M582 453.5C582 422.296 607.296 397 638.5 397 669.704 397 695 422.296 695 453.5 695 484.704 669.704 510 638.5 510 607.296 510 582 484.704 582 453.5Z" fill="#000000" fill-rule="evenodd" fill-opacity="0.501961"/><path d="M601 453.5C601 432.789 618.013 416 639 416 659.987 416 677 432.789 677 453.5 677 474.211 659.987 491 639 491 618.013 491 601 474.211 601 453.5Z" fill-rule="evenodd"/><path d="M563 537C563 507.177 587.177 483 617 483 646.823 483 671 507.177 671 537 671 566.823 646.823 591 617 591 587.177 591 563 566.823 563 537Z" fill="#000000" fill-rule="evenodd" fill-opacity="0.501961"/><path d="M577 537.5C577 515.132 594.909 497 617 497 639.091 497 657 515.132 657 537.5 657 559.868 639.091 578 617 578 594.909 578 577 559.868 577 537.5Z" fill="#000000" fill-rule="evenodd" fill-opacity="0.501961"/><path d="M590 537C590 522.088 602.088 510 617 510 631.912 510 644 522.088 644 537 644 551.912 631.912 564 617 564 602.088 564 590 551.912 590 537Z" fill-rule="evenodd"/><path d="M709 275.5C709 242.639 735.639 216 768.5 216 801.361 216 828 242.639 828 275.5 828 308.361 801.361 335 768.5 335 735.639 335 709 308.361 709 275.5Z" fill="#000000" fill-rule="evenodd" fill-opacity="0.501961"/><path d="M724 275C724 250.699 743.923 231 768.5 231 793.077 231 813 250.699 813 275 813 299.301 793.077 319 768.5 319 743.923 319 724 299.301 724 275Z" fill="#000000" fill-rule="evenodd" fill-opacity="0.501961"/><path d="M739 275C739 258.431 752.208 245 768.5 245 784.792 245 798 258.431 798 275 798 291.569 784.792 305 768.5 305 752.208 305 739 291.569 739 275Z" fill-rule="evenodd"/><path d="M200 361C200 343.879 213.879 330 231 330 248.121 330 262 343.879 262 361 262 378.121 248.121 392 231 392 213.879 392 200 378.121 200 361Z" fill="#000000" fill-rule="evenodd" fill-opacity="0.501961"/><path d="M208 361C208 348.297 218.297 338 231 338 243.703 338 254 348.297 254 361 254 373.703 243.703 384 231 384 218.297 384 208 373.703 208 361Z" fill="#000000" fill-rule="evenodd" fill-opacity="0.501961"/><path d="M216 361C216 352.716 222.716 346 231 346 239.284 346 246 352.716 246 361 246 369.284 239.284 376 231 376 222.716 376 216 369.284 216 361Z" fill-rule="evenodd"/><path d="M607 209C607 181.938 628.714 160 655.5 160 682.286 160 704 181.938 704 209 704 236.062 682.286 258 655.5 258 628.714 258 607 236.062 607 209Z" fill="#000000" fill-rule="evenodd" fill-opacity="0.501961"/><path d="M619 209.5C619 189.342 635.342 173 655.5 173 675.658 173 692 189.342 692 209.5 692 229.658 675.658 246 655.5 246 635.342 246 619 229.658 619 209.5Z" fill="#000000" fill-rule="evenodd" fill-opacity="0.501961"/><path d="M631 209.5C631 195.969 641.969 185 655.5 185 669.031 185 680 195.969 680 209.5 680 223.031 669.031 234 655.5 234 641.969 234 631 223.031 631 209.5Z" fill-rule="evenodd"/><path d="M519 252C519 242.059 527.283 234 537.5 234 547.717 234 556 242.059 556 252 556 261.941 547.717 270 537.5 270 527.283 270 519 261.941 519 252Z" fill="#000000" fill-rule="evenodd" fill-opacity="0.501961"/><path d="M524 251.5C524 244.044 530.044 238 537.5 238 544.956 238 551 244.044 551 251.5 551 258.956 544.956 265 537.5 265 530.044 265 524 258.956 524 251.5Z" fill="#000000" fill-rule="evenodd" fill-opacity="0.501961"/><path d="M529 252C529 247.029 533.029 243 538 243 542.971 243 547 247.029 547 252 547 256.971 542.971 261 538 261 533.029 261 529 256.971 529 252Z" fill-rule="evenodd"/><path d="M533 214.5C533 187.714 554.714 166 581.5 166 608.286 166 630 187.714 630 214.5 630 241.286 608.286 263 581.5 263 554.714 263 533 241.286 533 214.5Z" fill="#000000" fill-rule="evenodd" fill-opacity="0.501961"/><path d="M545 214.5C545 194.342 561.342 178 581.5 178 601.658 178 618 194.342 618 214.5 618 234.658 601.658 251 581.5 251 561.342 251 545 234.658 545 214.5Z" fill="#000000" fill-rule="evenodd" fill-opacity="0.501961"/><path d="M557 214.5C557 200.969 567.969 190 581.5 190 595.031 190 606 200.969 606 214.5 606 228.031 595.031 239 581.5 239 567.969 239 557 228.031 557 214.5Z" fill-rule="evenodd"/><path d="M506 176.5C506 166.283 514.059 158 524 158 533.941 158 542 166.283 542 176.5 542 186.717 533.941 195 524 195 514.059 195 506 186.717 506 176.5Z" fill="#000000" fill-rule="evenodd" fill-opacity="0.501961"/><path d="M510 176.5C510 169.044 516.268 163 524 163 531.732 163 538 169.044 538 176.5 538 183.956 531.732 190 524 190 516.268 190 510 183.956 510 176.5Z" fill="#000000" fill-rule="evenodd" fill-opacity="0.501961"/><path d="M515 176.5C515 171.253 519.029 167 524 167 528.971 167 533 171.253 533 176.5 533 181.747 528.971 186 524 186 519.029 186 515 181.747 515 176.5Z" fill-rule="evenodd"/><path d="M588 124.5C588 105.446 603.222 90 622 90 640.778 90 656 105.446 656 124.5 656 143.554 640.778 159 622 159 603.222 159 588 143.554 588 124.5Z" fill="#000000" fill-rule="evenodd" fill-opacity="0.501961"/><path d="M596 124.5C596 110.417 607.417 99 621.5 99 635.583 99 647 110.417 647 124.5 647 138.583 635.583 150 621.5 150 607.417 150 596 138.583 596 124.5Z" fill="#000000" fill-rule="evenodd" fill-opacity="0.501961"/><path d="M605 124.5C605 114.835 612.611 107 622 107 631.389 107 639 114.835 639 124.5 639 134.165 631.389 142 622 142 612.611 142 605 134.165 605 124.5Z" fill-rule="evenodd"/><path d="M639 117C639 98.2223 654.222 83 673 83 691.778 83 707 98.2223 707 117 707 135.778 691.778 151 673 151 654.222 151 639 135.778 639 117Z" fill="#000000" fill-rule="evenodd" fill-opacity="0.501961"/><path d="M647 117C647 102.641 658.417 91 672.5 91 686.583 91 698 102.641 698 117 698 131.359 686.583 143 672.5 143 658.417 143 647 131.359 647 117Z" fill="#000000" fill-rule="evenodd" fill-opacity="0.501961"/><path d="M656 117C656 107.611 663.611 100 673 100 682.389 100 690 107.611 690 117 690 126.389 682.389 134 673 134 663.611 134 656 126.389 656 117Z" fill-rule="evenodd"/><path d="M664 161C664 142.222 679.446 127 698.5 127 717.554 127 733 142.222 733 161 733 179.778 717.554 195 698.5 195 679.446 195 664 179.778 664 161Z" fill="#000000" fill-rule="evenodd" fill-opacity="0.501961"/><path d="M673 161.5C673 147.417 684.417 136 698.5 136 712.583 136 724 147.417 724 161.5 724 175.583 712.583 187 698.5 187 684.417 187 673 175.583 673 161.5Z" fill="#000000" fill-rule="evenodd" fill-opacity="0.501961"/><path d="M682 161C682 151.611 689.611 144 699 144 708.389 144 716 151.611 716 161 716 170.389 708.389 178 699 178 689.611 178 682 170.389 682 161Z" fill-rule="evenodd"/><path d="M677 215.5C677 188.714 698.714 167 725.5 167 752.286 167 774 188.714 774 215.5 774 242.286 752.286 264 725.5 264 698.714 264 677 242.286 677 215.5Z" fill="#000000" fill-rule="evenodd" fill-opacity="0.501961"/><path d="M689 215.5C689 195.342 705.342 179 725.5 179 745.658 179 762 195.342 762 215.5 762 235.658 745.658 252 725.5 252 705.342 252 689 235.658 689 215.5Z" fill="#000000" fill-rule="evenodd" fill-opacity="0.501961"/><path d="M701 215.5C701 201.969 711.969 191 725.5 191 739.031 191 750 201.969 750 215.5 750 229.031 739.031 240 725.5 240 711.969 240 701 229.031 701 215.5Z" fill-rule="evenodd"/><path d="M743 181.5C743 131.518 783.294 91 833 91 882.706 91 923 131.518 923 181.5 923 231.482 882.706 272 833 272 783.294 272 743 231.482 743 181.5Z" fill="#000000" fill-rule="evenodd" fill-opacity="0.501961"/><path d="M766 181.5C766 144.221 795.997 114 833 114 870.003 114 900 144.221 900 181.5 900 218.779 870.003 249 833 249 795.997 249 766 218.779 766 181.5Z" fill="#000000" fill-rule="evenodd" fill-opacity="0.501961"/><path d="M788 181.5C788 156.371 808.147 136 833 136 857.853 136 878 156.371 878 181.5 878 206.629 857.853 227 833 227 808.147 227 788 206.629 788 181.5Z" fill-rule="evenodd"/><path d="M813 175C813 103.203 871.203 45 943 45 1014.8 45 1073 103.203 1073 175 1073 246.797 1014.8 305 943 305 871.203 305 813 246.797 813 175Z" fill="#000000" fill-rule="evenodd" fill-opacity="0.501961"/><path d="M846 175C846 121.428 889.428 78 943 78 996.572 78 1040 121.428 1040 175 1040 228.572 996.572 272 943 272 889.428 272 846 228.572 846 175Z" fill="#000000" fill-rule="evenodd" fill-opacity="0.501961"/><path d="M878 175C878 139.101 907.102 110 943 110 978.898 110 1008 139.101 1008 175 1008 210.898 978.898 240 943 240 907.102 240 878 210.898 878 175Z" fill-rule="evenodd"/><path d="M964 181.5C964 131.518 1004.29 91 1054 91 1103.71 91 1144 131.518 1144 181.5 1144 231.482 1103.71 272 1054 272 1004.29 272 964 231.482 964 181.5Z" fill="#000000" fill-rule="evenodd" fill-opacity="0.501961"/><path d="M987 181.5C987 144.221 1017 114 1054 114 1091 114 1121 144.221 1121 181.5 1121 218.779 1091 249 1054 249 1017 249 987 218.779 987 181.5Z" fill="#000000" fill-rule="evenodd" fill-opacity="0.501961"/><path d="M1009 181.5C1009 156.371 1029.15 136 1054 136 1078.85 136 1099 156.371 1099 181.5 1099 206.629 1078.85 227 1054 227 1029.15 227 1009 206.629 1009 181.5Z" fill-rule="evenodd"/><path d="M841 305C841 279.043 862.043 258 888 258 913.957 258 935 279.043 935 305 935 330.957 913.957 352 888 352 862.043 352 841 330.957 841 305Z" fill="#000000" fill-rule="evenodd" fill-opacity="0.501961"/><path d="M853 305C853 285.67 868.67 270 888 270 907.33 270 923 285.67 923 305 923 324.33 907.33 340 888 340 868.67 340 853 324.33 853 305Z" fill="#000000" fill-rule="evenodd" fill-opacity="0.501961"/><path d="M864 305.5C864 292.521 874.745 282 888 282 901.255 282 912 292.521 912 305.5 912 318.479 901.255 329 888 329 874.745 329 864 318.479 864 305.5Z" fill-rule="evenodd"/><path d="M936 308.5C936 284.476 955.476 265 979.5 265 1003.52 265 1023 284.476 1023 308.5 1023 332.524 1003.52 352 979.5 352 955.476 352 936 332.524 936 308.5Z" fill="#000000" fill-rule="evenodd" fill-opacity="0.501961"/><path d="M947 308.5C947 290.551 961.551 276 979.5 276 997.449 276 1012 290.551 1012 308.5 1012 326.449 997.449 341 979.5 341 961.551 341 947 326.449 947 308.5Z" fill="#000000" fill-rule="evenodd" fill-opacity="0.501961"/><path d="M958 308.5C958 296.626 967.626 287 979.5 287 991.374 287 1001 296.626 1001 308.5 1001 320.374 991.374 330 979.5 330 967.626 330 958 320.374 958 308.5Z" fill-rule="evenodd"/><path d="M1017 559.5C1017 526.639 1043.64 500 1076.5 500 1109.36 500 1136 526.639 1136 559.5 1136 592.361 1109.36 619 1076.5 619 1043.64 619 1017 592.361 1017 559.5Z" fill="#000000" fill-rule="evenodd" fill-opacity="0.501961"/><path d="M1032 559.5C1032 534.923 1051.7 515 1076 515 1100.3 515 1120 534.923 1120 559.5 1120 584.077 1100.3 604 1076 604 1051.7 604 1032 584.077 1032 559.5Z" fill="#000000" fill-rule="evenodd" fill-opacity="0.501961"/><path d="M1046 559.5C1046 543.208 1059.43 530 1076 530 1092.57 530 1106 543.208 1106 559.5 1106 575.792 1092.57 589 1076 589 1059.43 589 1046 575.792 1046 559.5Z" fill-rule="evenodd"/><path d="M1108 145.5C1108 118.714 1129.71 97 1156.5 97 1183.29 97 1205 118.714 1205 145.5 1205 172.286 1183.29 194 1156.5 194 1129.71 194 1108 172.286 1108 145.5Z" fill="#000000" fill-rule="evenodd" fill-opacity="0.501961"/><path d="M1120 145.5C1120 125.342 1136.34 109 1156.5 109 1176.66 109 1193 125.342 1193 145.5 1193 165.658 1176.66 182 1156.5 182 1136.34 182 1120 165.658 1120 145.5Z" fill="#000000" fill-rule="evenodd" fill-opacity="0.501961"/><path d="M1132 145.5C1132 131.969 1142.97 121 1156.5 121 1170.03 121 1181 131.969 1181 145.5 1181 159.031 1170.03 170 1156.5 170 1142.97 170 1132 159.031 1132 145.5Z" fill-rule="evenodd"/><path d="M938 372C938 362.059 946.283 354 956.5 354 966.717 354 975 362.059 975 372 975 381.941 966.717 390 956.5 390 946.283 390 938 381.941 938 372Z" fill="#000000" fill-rule="evenodd" fill-opacity="0.501961"/><path d="M943 372C943 364.268 949.044 358 956.5 358 963.956 358 970 364.268 970 372 970 379.732 963.956 386 956.5 386 949.044 386 943 379.732 943 372Z" fill="#000000" fill-rule="evenodd" fill-opacity="0.501961"/><path d="M947 372C947 367.029 951.029 363 956 363 960.971 363 965 367.029 965 372 965 376.971 960.971 381 956 381 951.029 381 947 376.971 947 372Z" fill-rule="evenodd"/><path d="M954 397C954 387.059 962.283 379 972.5 379 982.717 379 991 387.059 991 397 991 406.941 982.717 415 972.5 415 962.283 415 954 406.941 954 397Z" fill="#000000" fill-rule="evenodd" fill-opacity="0.501961"/><path d="M959 397C959 389.268 965.044 383 972.5 383 979.956 383 986 389.268 986 397 986 404.732 979.956 411 972.5 411 965.044 411 959 404.732 959 397Z" fill="#000000" fill-rule="evenodd" fill-opacity="0.501961"/><path d="M963 397C963 392.029 967.253 388 972.5 388 977.747 388 982 392.029 982 397 982 401.971 977.747 406 972.5 406 967.253 406 963 401.971 963 397Z" fill-rule="evenodd"/><path d="M998 378C998 368.059 1006.28 360 1016.5 360 1026.72 360 1035 368.059 1035 378 1035 387.941 1026.72 396 1016.5 396 1006.28 396 998 387.941 998 378Z" fill="#000000" fill-rule="evenodd" fill-opacity="0.501961"/><path d="M1003 378C1003 370.268 1009.04 364 1016.5 364 1023.96 364 1030 370.268 1030 378 1030 385.732 1023.96 392 1016.5 392 1009.04 392 1003 385.732 1003 378Z" fill="#000000" fill-rule="evenodd" fill-opacity="0.501961"/><path d="M1007 378C1007 373.029 1011.03 369 1016 369 1020.97 369 1025 373.029 1025 378 1025 382.971 1020.97 387 1016 387 1011.03 387 1007 382.971 1007 378Z" fill-rule="evenodd"/><path d="M720 503.5C720 493.283 728.283 485 738.5 485 748.717 485 757 493.283 757 503.5 757 513.717 748.717 522 738.5 522 728.283 522 720 513.717 720 503.5Z" fill="#000000" fill-rule="evenodd" fill-opacity="0.501961"/><path d="M725 503.5C725 496.044 731.044 490 738.5 490 745.956 490 752 496.044 752 503.5 752 510.956 745.956 517 738.5 517 731.044 517 725 510.956 725 503.5Z" fill="#000000" fill-rule="evenodd" fill-opacity="0.501961"/><path d="M729 503.5C729 498.253 733.253 494 738.5 494 743.747 494 748 498.253 748 503.5 748 508.747 743.747 513 738.5 513 733.253 513 729 508.747 729 503.5Z" fill-rule="evenodd"/><path d="M1051 415.5C1051 405.283 1059.28 397 1069.5 397 1079.72 397 1088 405.283 1088 415.5 1088 425.717 1079.72 434 1069.5 434 1059.28 434 1051 425.717 1051 415.5Z" fill="#000000" fill-rule="evenodd" fill-opacity="0.501961"/><path d="M1056 415.5C1056 408.044 1062.04 402 1069.5 402 1076.96 402 1083 408.044 1083 415.5 1083 422.956 1076.96 429 1069.5 429 1062.04 429 1056 422.956 1056 415.5Z" fill="#000000" fill-rule="evenodd" fill-opacity="0.501961"/><path d="M1061 415C1061 410.029 1065.03 406 1070 406 1074.97 406 1079 410.029 1079 415 1079 419.971 1074.97 424 1070 424 1065.03 424 1061 419.971 1061 415Z" fill-rule="evenodd"/><path d="M976 416C976 406.059 984.059 398 994 398 1003.94 398 1012 406.059 1012 416 1012 425.941 1003.94 434 994 434 984.059 434 976 425.941 976 416Z" fill="#000000" fill-rule="evenodd" fill-opacity="0.501961"/><path d="M980 416C980 408.268 986.044 402 993.5 402 1000.96 402 1007 408.268 1007 416 1007 423.732 1000.96 430 993.5 430 986.044 430 980 423.732 980 416Z" fill="#000000" fill-rule="evenodd" fill-opacity="0.501961"/><path d="M985 416C985 411.029 989.029 407 994 407 998.971 407 1003 411.029 1003 416 1003 420.971 998.971 425 994 425 989.029 425 985 420.971 985 416Z" fill-rule="evenodd"/><path d="M1155 544.5C1155 534.283 1163.06 526 1173 526 1182.94 526 1191 534.283 1191 544.5 1191 554.717 1182.94 563 1173 563 1163.06 563 1155 554.717 1155 544.5Z" fill="#000000" fill-rule="evenodd" fill-opacity="0.501961"/><path d="M1160 544.5C1160 537.044 1166.04 531 1173.5 531 1180.96 531 1187 537.044 1187 544.5 1187 551.956 1180.96 558 1173.5 558 1166.04 558 1160 551.956 1160 544.5Z" fill="#000000" fill-rule="evenodd" fill-opacity="0.501961"/><path d="M1164 544.5C1164 539.253 1168.03 535 1173 535 1177.97 535 1182 539.253 1182 544.5 1182 549.747 1177.97 554 1173 554 1168.03 554 1164 549.747 1164 544.5Z" fill-rule="evenodd"/><path d="M716 530C716 520.059 724.059 512 734 512 743.941 512 752 520.059 752 530 752 539.941 743.941 548 734 548 724.059 548 716 539.941 716 530Z" fill="#000000" fill-rule="evenodd" fill-opacity="0.501961"/><path d="M721 530C721 522.268 727.044 516 734.5 516 741.956 516 748 522.268 748 530 748 537.732 741.956 544 734.5 544 727.044 544 721 537.732 721 530Z" fill="#000000" fill-rule="evenodd" fill-opacity="0.501961"/><path d="M725 530C725 525.029 729.029 521 734 521 738.971 521 743 525.029 743 530 743 534.971 738.971 539 734 539 729.029 539 725 534.971 725 530Z" fill-rule="evenodd"/><path d="M1149 581.5C1149 571.283 1157.06 563 1167 563 1176.94 563 1185 571.283 1185 581.5 1185 591.717 1176.94 600 1167 600 1157.06 600 1149 591.717 1149 581.5Z" fill="#000000" fill-rule="evenodd" fill-opacity="0.501961"/><path d="M1153 581.5C1153 574.044 1159.04 568 1166.5 568 1173.96 568 1180 574.044 1180 581.5 1180 588.956 1173.96 595 1166.5 595 1159.04 595 1153 588.956 1153 581.5Z" fill="#000000" fill-rule="evenodd" fill-opacity="0.501961"/><path d="M1158 582C1158 577.029 1162.03 573 1167 573 1171.97 573 1176 577.029 1176 582 1176 586.971 1171.97 591 1167 591 1162.03 591 1158 586.971 1158 582Z" fill-rule="evenodd"/><path d="M931 556.5C931 525.296 956.296 500 987.5 500 1018.7 500 1044 525.296 1044 556.5 1044 587.704 1018.7 613 987.5 613 956.296 613 931 587.704 931 556.5Z" fill="#000000" fill-rule="evenodd" fill-opacity="0.501961"/><path d="M946 557C946 533.804 964.804 515 988 515 1011.2 515 1030 533.804 1030 557 1030 580.196 1011.2 599 988 599 964.804 599 946 580.196 946 557Z" fill="#000000" fill-rule="evenodd" fill-opacity="0.501961"/><path d="M959 557C959 541.536 971.76 529 987.5 529 1003.24 529 1016 541.536 1016 557 1016 572.464 1003.24 585 987.5 585 971.76 585 959 572.464 959 557Z" fill-rule="evenodd"/><path d="M989 506.5C989 487.446 1004.67 472 1024 472 1043.33 472 1059 487.446 1059 506.5 1059 525.554 1043.33 541 1024 541 1004.67 541 989 525.554 989 506.5Z" fill="#000000" fill-rule="evenodd" fill-opacity="0.501961"/><path d="M998 506.5C998 491.864 1009.64 480 1024 480 1038.36 480 1050 491.864 1050 506.5 1050 521.136 1038.36 533 1024 533 1009.64 533 998 521.136 998 506.5Z" fill="#000000" fill-rule="evenodd" fill-opacity="0.501961"/><path d="M1007 506.5C1007 496.835 1014.84 489 1024.5 489 1034.17 489 1042 496.835 1042 506.5 1042 516.165 1034.17 524 1024.5 524 1014.84 524 1007 516.165 1007 506.5Z" fill-rule="evenodd"/><path d="M1071 495.5C1071 485.283 1079.06 477 1089 477 1098.94 477 1107 485.283 1107 495.5 1107 505.717 1098.94 514 1089 514 1079.06 514 1071 505.717 1071 495.5Z" fill="#000000" fill-rule="evenodd" fill-opacity="0.501961"/><path d="M1075 495.5C1075 488.044 1081.27 482 1089 482 1096.73 482 1103 488.044 1103 495.5 1103 502.956 1096.73 509 1089 509 1081.27 509 1075 502.956 1075 495.5Z" fill="#000000" fill-rule="evenodd" fill-opacity="0.501961"/><path d="M1080 495.5C1080 490.253 1084.03 486 1089 486 1093.97 486 1098 490.253 1098 495.5 1098 500.747 1093.97 505 1089 505 1084.03 505 1080 500.747 1080 495.5Z" fill-rule="evenodd"/></g></svg>