<svg width="273" height="325" xmlns="http://www.w3.org/2000/svg" xmlns:xlink="http://www.w3.org/1999/xlink" overflow="hidden"><defs><clipPath id="clip0"><path d="M691 269 964 269 964 594 691 594Z" fill-rule="evenodd" clip-rule="evenodd"/></clipPath></defs><g clip-path="url(#clip0)" transform="translate(-691 -269)"><path d="M747.529 348 748.364 349.54 748.316 349.54 762.592 376.098 753.696 383.447C734.808 402.358 723.125 428.483 723.125 457.339 723.125 515.052 769.855 561.838 827.5 561.838 885.145 561.838 931.875 515.052 931.875 457.339 931.875 428.483 920.192 402.358 901.304 383.447L892.369 376.066 905.948 350.806 905.95 350.806 907.471 348 913.691 352.657C943.805 377.539 963 415.195 963 457.339 963 532.263 902.335 593 827.5 593 752.665 593 692 532.263 692 457.339 692 415.195 711.195 377.539 741.309 352.657Z" fill-rule="evenodd"/><path d="M873.91 410 876.497 412.141C889.165 424.847 897 442.4 897 461.788 897 500.565 865.66 532 827 532 788.34 532 757 500.565 757 461.788 757 442.4 764.835 424.847 777.503 412.141L780.051 410.032 788.967 426.648 783.989 432.7C778.396 441.003 775.13 451.013 775.13 461.788 775.13 490.522 798.353 513.815 827 513.815 855.647 513.815 878.87 490.522 878.87 461.788 878.87 451.013 875.604 441.003 870.011 432.7L864.999 426.607Z" fill-rule="evenodd"/><path d="M827.5 270C859.809 270 886 295.986 886 328.041 886 336.055 884.363 343.689 881.403 350.633L879.451 354.201 879.45 354.201 827.481 450 775.062 353.37 775.095 353.37 773.597 350.633C770.637 343.689 769 336.055 769 328.041 769 295.986 795.191 270 827.5 270Z" fill-rule="evenodd"/></g></svg>