<svg width="308" height="266" xmlns="http://www.w3.org/2000/svg" xmlns:xlink="http://www.w3.org/1999/xlink" overflow="hidden"><defs><clipPath id="clip0"><path d="M324 280 632 280 632 546 324 546Z" fill-rule="evenodd" clip-rule="evenodd"/></clipPath></defs><g clip-path="url(#clip0)" transform="translate(-324 -280)"><rect x="325" y="309" width="306" height="22"/><rect x="325" y="494" width="306" height="23"/><rect x="325" y="402" width="306" height="22"/><path d="M379 413C379 391.461 396.685 374 418.5 374 440.315 374 458 391.461 458 413 458 434.539 440.315 452 418.5 452 396.685 452 379 434.539 379 413Z" fill-rule="evenodd"/><path d="M485 505.5C485 483.685 502.685 466 524.5 466 546.315 466 564 483.685 564 505.5 564 527.315 546.315 545 524.5 545 502.685 545 485 527.315 485 505.5Z" fill-rule="evenodd"/><path d="M522 320C522 298.461 539.685 281 561.5 281 583.315 281 601 298.461 601 320 601 341.539 583.315 359 561.5 359 539.685 359 522 341.539 522 320Z" fill-rule="evenodd"/></g></svg>